<?xml version="1.0" encoding="UTF-8" standalone="no"?>
<!-- Created with Inkscape (http://www.inkscape.org/) -->

<svg
   width="512"
   height="512"
   viewBox="0 0 135.46667 135.46667"
   version="1.1"
   id="svg5"
   inkscape:version="1.1 (c68e22c387, 2021-05-23)"
   sodipodi:docname="proc_ico.svg"
   xmlns:inkscape="http://www.inkscape.org/namespaces/inkscape"
   xmlns:sodipodi="http://sodipodi.sourceforge.net/DTD/sodipodi-0.dtd"
   xmlns="http://www.w3.org/2000/svg"
   xmlns:svg="http://www.w3.org/2000/svg">
  <sodipodi:namedview
     id="namedview7"
     pagecolor="#505050"
     bordercolor="#eeeeee"
     borderopacity="1"
     inkscape:pageshadow="0"
     inkscape:pageopacity="0"
     inkscape:pagecheckerboard="0"
     inkscape:document-units="mm"
     showgrid="false"
     units="px"
     inkscape:zoom="1.3102506"
     inkscape:cx="342.68254"
     inkscape:cy="263.69001"
     inkscape:window-width="1920"
     inkscape:window-height="1017"
     inkscape:window-x="2718"
     inkscape:window-y="-8"
     inkscape:window-maximized="1"
     inkscape:current-layer="layer1" />
  <defs
     id="defs2" />
  <g
     inkscape:label="レイヤー 1"
     inkscape:groupmode="layer"
     id="layer1">
    <path
       style="fill:#3ad52a;stroke-width:0.101696;fill-opacity:1"
       d="m 43.326198,116.54763 v -2.03393 h -2.033931 -2.033931 v -2.03393 -2.03393 h 2.033931 2.033931 v -2.03394 -2.03393 h 8.135708 8.135723 v -4.06784 -4.067864 H 39.258336 18.919044 v -2.03393 -2.03394 h -2.03393 -2.033931 V 57.563691 20.952982 h 2.033931 2.03393 v -2.03393 -2.033931 h 48.814293 48.814283 v 2.033931 2.03393 h 2.03393 2.03393 v 36.610709 36.610705 h -2.03393 -2.03393 v 2.03394 2.03393 H 96.208333 75.86906 v 4.067864 4.06784 h 8.135708 8.135725 v 2.03393 2.03394 h 2.03391 2.03393 v 2.03393 2.03393 h -2.03393 -2.03391 v 2.03393 2.03392 H 67.733337 43.326198 Z M 112.47976,57.563691 v -28.475 H 67.733337 22.986905 v 28.475 28.475005 H 67.733337 112.47976 Z M 51.461906,79.9369 v -2.033931 h 4.067861 4.067862 v -2.03393 -2.033931 h 2.033916 2.033945 v -2.033916 -2.033931 h 2.033916 2.033931 V 67.73333 65.699414 h 2.033931 2.03393 v -4.067861 -4.067862 h 2.033931 2.033931 V 51.461913 45.360122 H 57.563698 39.258336 v -4.067848 -4.067861 h 22.373209 22.373223 v -2.03393 -2.033931 h 6.101795 6.10177 v 2.033931 2.03393 h 2.03394 2.033917 v 6.101778 6.101792 h -2.033917 -2.03394 v 2.03393 2.033931 h -4.06784 -4.06786 v 4.067847 4.067862 h -2.03393 -2.033935 v 2.03393 2.033931 h -2.033931 -2.03393 v 2.033916 2.033931 H 77.90299 75.86906 v 2.033931 2.033916 h -2.033931 -2.033931 v 2.033931 2.03393 H 67.733337 63.66549 V 79.9369 81.970831 H 57.563698 51.461906 Z M 92.140493,47.394052 v -2.03393 h 2.03391 2.03393 v -2.033931 -2.033917 h -2.03393 -2.03391 v -2.03393 -2.033931 h -2.03393 -2.03393 v 2.033931 2.03393 h -2.03393 -2.033935 v 2.033917 2.033931 h 2.033935 2.03393 v 2.03393 2.033931 h 2.03393 2.03393 z"
       id="path21" />
  </g>
</svg>
