<?xml version="1.0" encoding="UTF-8" standalone="no"?>
<!-- Created with Inkscape (http://www.inkscape.org/) -->

<svg
   width="1280"
   height="1280"
   viewBox="0 0 338.66668 338.66668"
   version="1.1"
   id="svg5"
   inkscape:version="1.1 (c68e22c387, 2021-05-23)"
   sodipodi:docname="worksBG.svg"
   xmlns:inkscape="http://www.inkscape.org/namespaces/inkscape"
   xmlns:sodipodi="http://sodipodi.sourceforge.net/DTD/sodipodi-0.dtd"
   xmlns="http://www.w3.org/2000/svg"
   xmlns:svg="http://www.w3.org/2000/svg">
  <sodipodi:namedview
     id="namedview7"
     pagecolor="#505050"
     bordercolor="#eeeeee"
     borderopacity="1"
     inkscape:pageshadow="0"
     inkscape:pageopacity="0"
     inkscape:pagecheckerboard="0"
     inkscape:document-units="mm"
     showgrid="false"
     units="px"
     inkscape:zoom="0.5"
     inkscape:cx="472"
     inkscape:cy="639"
     inkscape:window-width="1920"
     inkscape:window-height="1017"
     inkscape:window-x="2718"
     inkscape:window-y="-8"
     inkscape:window-maximized="1"
     inkscape:current-layer="layer1"
     fit-margin-top="0"
     fit-margin-left="0"
     fit-margin-right="0"
     fit-margin-bottom="0" />
  <defs
     id="defs2" />
  <g
     inkscape:label="レイヤー 1"
     inkscape:groupmode="layer"
     id="layer1">
    <path
       style="fill:#262626;fill-opacity:1;stroke-width:0.132344"
       d="M 42.288549,127.04554 84.577098,84.757771 126.95522,42.378885 169.33334,0 V 84.666661 169.33332 H 84.666659 0 Z"
       id="path914" />
    <path
       style="fill:#242424;fill-opacity:1;stroke-width:0.133667"
       d="M 128.31523,42.710659 85.603778,85.421304 42.801899,128.22399 0,171.02666 V 85.513323 0 h 85.513334 85.513346 z"
       id="path914-4" />
    <path
       style="fill:#262626;fill-opacity:1;stroke-width:0.133667"
       d="M 297.64822,42.710659 254.9368,85.421304 212.1349,128.22398 169.333,171.02666 V 85.513327 0 h 85.51334 85.51333 z"
       id="path3142" />
    <path
       style="fill:#242424;fill-opacity:1;stroke-width:0.132344"
       d="M 211.6219,127.04554 253.91045,84.757774 296.28855,42.37888 338.66667,0 v 84.666666 84.666654 h -84.66666 -84.66667 z"
       id="path3144" />
    <path
       style="fill:#262626;fill-opacity:1;stroke-width:0.133667"
       d="M 128.31523,212.04366 85.603799,254.75431 42.801899,297.55697 0,340.35965 V 254.84633 169.333 h 85.51334 85.51334 z"
       id="path3146" />
    <path
       style="fill:#242424;fill-opacity:1;stroke-width:0.132344"
       d="m 42.288555,296.37885 42.288569,-42.28776 42.378096,-42.37889 42.37812,-42.37888 v 84.66666 84.66665 H 84.666673 0 Z"
       id="path3148" />
    <path
       style="fill:#242424;fill-opacity:1;stroke-width:0.133667"
       d="m 297.64822,212.04366 -42.71145,42.71065 -42.80187,42.80268 -42.8019,42.80266 V 254.84633 169.333 h 85.51333 85.51334 z"
       id="path3150" />
    <path
       style="fill:#262626;fill-opacity:1;stroke-width:0.132344"
       d="m 211.6219,296.37885 42.28854,-42.28776 42.37811,-42.37889 42.37812,-42.37888 v 84.66666 84.66665 H 254 169.33334 Z"
       id="path3152" />
  </g>
</svg>